<svg width="102" height="102" viewBox="0 0 102 102" fill="none" xmlns="http://www.w3.org/2000/svg">
<path d="M77.5241 12.0275C77.0442 11.8119 76.7056 11.7216 76.5084 11.7566C76.3048 11.7933 76.0676 12.0435 75.7971 12.5074L72.6094 17.972C72.3552 18.4078 72.2555 18.7303 72.3105 18.9392C72.3632 19.1521 72.6081 19.4076 73.0453 19.7055L72.9123 19.9334L69.4393 17.9075L69.5722 17.6795C70.0381 17.9191 70.3852 18.0224 70.6135 17.9895C70.8377 17.9541 71.0688 17.7325 71.3068 17.3246L74.7498 11.4222C74.8291 11.2863 74.8701 11.1654 74.8728 11.0598C74.8691 10.9558 74.7952 10.8484 74.6509 10.7374C74.5659 10.6717 74.4746 10.6078 74.3769 10.5455C74.2753 10.4808 74.0845 10.3668 73.8046 10.2035C72.7129 9.56672 71.9226 9.22631 71.4337 9.18232C70.9449 9.13833 70.3047 9.38127 69.5132 9.91113L69.2013 9.72918L71.0433 7.94965L77.6536 11.8056L77.5241 12.0275Z" fill="#333333"/>
<path d="M67.0176 9.82432C66.7539 10.7071 66.2518 11.3688 65.5114 11.8096C64.7651 12.2534 63.9507 12.3435 63.0679 12.0798C62.1896 11.8174 61.5483 11.3118 61.1439 10.5629C60.7395 9.81394 60.6804 8.96041 60.9666 8.00226C61.2303 7.11952 61.739 6.43559 62.4927 5.95048C63.2464 5.46536 64.0668 5.35532 64.954 5.62034C65.8057 5.87475 66.4331 6.40281 66.8363 7.20451C67.2394 8.00621 67.2998 8.87948 67.0176 9.82432ZM63.3735 11.7362C63.7239 11.8409 64.0622 11.8164 64.3884 11.6625C64.9526 11.3914 65.3824 10.7612 65.6779 9.77201C65.9138 8.98243 65.9563 8.19307 65.8055 7.40393C65.6503 6.61347 65.2555 6.1235 64.6212 5.93401C64.1243 5.7856 63.6746 5.90009 63.272 6.27748C62.8649 6.65355 62.5507 7.21197 62.3294 7.95277C62.1002 8.72017 62.055 9.49424 62.1938 10.275C62.3326 11.0557 62.7258 11.5428 63.3735 11.7362Z" fill="#333333"/>
<path d="M58.1832 4.51439C57.7557 4.5098 57.4674 4.55604 57.3184 4.6531C57.1689 4.75477 57.0761 4.98991 57.0401 5.35852L56.7352 8.47556C56.6906 8.93171 56.7026 9.26082 56.7713 9.4629C56.8348 9.66914 56.9795 9.7833 57.2053 9.80538C57.2513 9.80988 57.3142 9.80905 57.3939 9.80289C57.4685 9.80088 57.5482 9.79472 57.6329 9.7844L57.6106 10.0125C57.339 10.0789 57.0602 10.147 56.7743 10.2168C56.4884 10.2865 56.2904 10.3369 56.1804 10.368C55.9414 10.433 55.6945 10.5089 55.4394 10.5956C55.4072 10.5924 55.3899 10.5791 55.3875 10.5556C55.3806 10.5317 55.3807 10.4829 55.3879 10.4091L55.4987 9.27566C55.1638 9.6569 54.8491 9.94942 54.5547 10.1532C54.2557 10.3566 53.9588 10.4438 53.6639 10.415C53.4289 10.392 53.2447 10.3019 53.1112 10.1446C52.9773 9.99198 52.9207 9.80968 52.9414 9.59773C52.9599 9.40882 53.033 9.25549 53.1608 9.13774C53.284 9.01954 53.4309 8.96878 53.6013 8.98545C53.7764 9.00257 53.9459 9.10055 54.1099 9.27939C54.2692 9.45778 54.3995 9.55193 54.5009 9.56184C54.6622 9.57761 54.8731 9.46567 55.1338 9.22602C55.394 8.99097 55.5376 8.73522 55.5647 8.45877L55.8695 5.34173C55.9082 4.94548 55.8431 4.66001 55.6741 4.48533C55.5047 4.31526 55.2053 4.21388 54.7759 4.18119L54.7982 3.95311L58.2055 4.28632L58.1832 4.51439Z" fill="#333333"/>
<path d="M47.6513 10.5116C47.0011 10.5695 46.4115 10.3944 45.8824 9.98601C45.3538 9.58228 45.0526 8.9677 44.9791 8.14228L49.3713 7.75081C49.2299 6.6851 48.9183 5.92737 48.4367 5.47762C47.955 5.02787 47.4145 4.8297 46.815 4.88313C46.3308 4.92629 45.934 5.08947 45.6246 5.37268C45.3152 5.6559 45.0406 6.04291 44.8009 6.53372L44.5514 6.47229C44.6882 5.86981 44.995 5.29634 45.4717 4.75187C45.9438 4.20782 46.5556 3.9023 47.3073 3.83531C48.1742 3.75804 48.8743 4.02564 49.4076 4.63811C49.9364 5.251 50.2387 5.98398 50.3148 6.83707C50.3974 7.76394 50.1943 8.58845 49.7056 9.31061C49.2168 10.0328 48.5321 10.4331 47.6513 10.5116ZM48.0075 9.9709C48.5332 9.92405 48.9136 9.65542 49.1488 9.16502C49.2742 8.90286 49.3523 8.57984 49.3831 8.19596L46.4642 8.45612C46.556 8.91273 46.6742 9.24846 46.8189 9.46332C47.081 9.84897 47.4772 10.0182 48.0075 9.9709Z" fill="#333333"/>
<path d="M40.325 4.98865C39.9963 5.14159 39.7902 5.27984 39.7068 5.40341C39.5781 5.59251 39.5821 5.87651 39.7187 6.25542L40.9361 9.63293C41.0523 9.95522 41.172 10.1507 41.2952 10.2195C41.414 10.2899 41.5715 10.2897 41.7675 10.2191C41.8589 10.1861 41.927 10.1566 41.9718 10.1306C42.0122 10.1062 42.059 10.0722 42.1121 10.0284L42.1945 10.2571L41.7807 10.5834C41.6312 10.7012 41.3894 10.9041 41.0551 11.1919C40.7209 11.4797 40.5429 11.6275 40.5211 11.6353C40.4993 11.6432 40.4823 11.637 40.4701 11.6168C40.4579 11.5966 40.4408 11.556 40.4189 11.495L40.101 10.6131C39.8111 11.1605 39.536 11.5647 39.2758 11.8258C39.0172 12.0913 38.7224 12.2837 38.3914 12.403C37.9428 12.5647 37.5307 12.541 37.1552 12.3319C36.9561 12.2166 36.7599 12.0339 36.5664 11.7838C36.3618 12.2266 36.168 12.5696 35.985 12.8127C35.6686 13.2319 35.2948 13.5192 34.8636 13.6746C34.1624 13.9274 33.5914 13.8109 33.1506 13.3251C32.8994 13.0515 32.6482 12.5663 32.397 11.8694L31.4197 9.15826C31.3083 8.84904 31.1646 8.66214 30.9888 8.59757C30.8102 8.53893 30.536 8.55655 30.1663 8.65044L30.1051 8.48058L33.0515 7.41855L33.1174 7.60147C32.751 7.77289 32.5303 7.93859 32.4551 8.09857C32.3755 8.26012 32.4009 8.52164 32.5312 8.88313L33.5461 11.6988C33.6984 12.1213 33.8564 12.4162 34.02 12.5836C34.3099 12.8826 34.69 12.9474 35.1604 12.7778C35.4435 12.6758 35.6907 12.4809 35.9019 12.1931C36.0238 12.0261 36.1592 11.7805 36.308 11.4562L35.1023 8.11135C34.9752 7.75857 34.8176 7.5127 34.6298 7.37373C34.4375 7.23634 34.1387 7.23333 33.7333 7.36469L33.6721 7.19484L36.6707 6.11396L36.7319 6.28382C36.337 6.48522 36.1096 6.68037 36.0498 6.86927C35.9899 7.05816 36.0644 7.44223 36.2732 8.02149L36.9325 9.8507C37.1743 10.5214 37.3842 10.9674 37.5624 11.1886C37.86 11.5636 38.2418 11.6671 38.7078 11.4991C38.9735 11.4034 39.2081 11.2351 39.4117 10.9944C39.6168 10.7581 39.775 10.487 39.8862 10.1812L38.5981 6.60766C38.4788 6.27666 38.3398 6.06841 38.181 5.98293C38.0179 5.89901 37.7417 5.92474 37.3525 6.0601L37.2913 5.89025L40.2638 4.81879L40.325 4.98865Z" fill="#333333"/>
<path d="M26.6054 21.7319C26.7365 21.8817 26.797 22.0564 26.787 22.2558C26.777 22.4553 26.6953 22.6221 26.542 22.7562C26.3921 22.8873 26.2177 22.9445 26.0187 22.9279C25.8192 22.9179 25.6524 22.8362 25.5183 22.6829C25.3872 22.5331 25.3284 22.3569 25.342 22.1544C25.3551 21.9584 25.4365 21.7949 25.5864 21.6638C25.7397 21.5297 25.9143 21.4692 26.1103 21.4823C26.3093 21.4988 26.4744 21.582 26.6054 21.7319ZM21.4997 14.5453C21.1573 14.9063 20.977 15.1748 20.9587 15.3507C20.9434 15.5302 21.1141 15.8237 21.4707 16.2314L23.6517 18.7245C23.8498 18.951 24.0027 19.0941 24.1103 19.1538C24.2875 19.2509 24.4597 19.2263 24.627 19.08C24.6653 19.0465 24.7006 19.0095 24.7328 18.969C24.7616 18.9315 24.8417 18.8122 24.9733 18.611L25.115 18.773L24.9543 19.0428C24.5183 19.7749 24.2242 20.2966 24.0722 20.608C24.0112 20.7351 23.9668 20.8109 23.9389 20.8353C23.9106 20.817 23.8843 20.7939 23.8599 20.766L20.577 17.0133C20.2295 16.616 19.9645 16.408 19.782 16.3893C19.596 16.3736 19.3219 16.4996 18.9595 16.7674L18.8315 16.6211L21.3716 14.399L21.4997 14.5453Z" fill="#333333"/>
<path d="M15.7366 21.7736C15.4147 21.6739 15.1189 21.6682 14.8493 21.7567C14.5804 21.8517 14.3459 22.0266 14.1458 22.2815C13.837 22.6747 13.7687 23.1627 13.941 23.7453C14.1141 24.3345 14.5502 24.9036 15.2492 25.4526C15.9192 25.9787 16.5342 26.2262 17.0943 26.1951C17.6515 26.1677 18.0802 25.9628 18.3805 25.5805C18.5921 25.311 18.7013 24.9995 18.7082 24.6459C18.7188 24.2951 18.644 24.0568 18.4838 23.931L15.7366 21.7736ZM13.8399 17.4764C13.593 17.8358 13.4957 18.1096 13.548 18.2978C13.5975 18.4897 13.7551 18.69 14.0209 18.8988L19.264 23.0161C19.5407 23.2335 19.7445 23.3375 19.8753 23.3284C20.0068 23.3258 20.1455 23.2316 20.2914 23.0459C20.3228 23.0059 20.351 22.9662 20.376 22.9269C20.3981 22.8913 20.4294 22.8364 20.4699 22.7623L20.6502 22.9038L20.412 23.5557C20.4014 23.5767 20.2396 24.0413 19.9268 24.9494C19.9125 24.9676 19.8934 24.9732 19.8695 24.9662C19.8463 24.9656 19.8238 24.9568 19.802 24.9397L19.0647 24.3606C19.1163 24.7897 19.1288 25.141 19.1024 25.4145C19.0489 25.9023 18.8864 26.3192 18.6148 26.6651C18.2202 27.1675 17.6665 27.4303 16.9538 27.4534C16.2419 27.483 15.5145 27.2061 14.7718 26.6228C14.0436 26.0509 13.5543 25.3135 13.3039 24.4105C13.0506 23.5112 13.1828 22.732 13.7003 22.0729C13.8604 21.869 14.0246 21.7125 14.1928 21.6032C14.4523 21.4302 14.7611 21.3255 15.1194 21.289L13.3335 19.8865C12.9658 19.5977 12.6928 19.4805 12.5147 19.5349C12.3366 19.5893 12.0743 19.8071 11.7278 20.1884L11.5367 20.0383L13.6597 17.3348L13.8399 17.4764Z" fill="#333333"/>
<path d="M11.6845 29.2161L11.5828 29.4214C11.0626 29.2825 10.6359 29.2312 10.3027 29.2676C9.69423 29.3278 9.25124 29.6379 8.97375 30.1979C8.81959 30.509 8.78335 30.7959 8.86504 31.0585C8.94882 31.3274 9.12761 31.5296 9.40139 31.6653C9.57562 31.7516 9.76931 31.783 9.98248 31.7595C10.1957 31.736 10.4437 31.6315 10.7267 31.4463L11.4703 30.9467C11.9969 30.5721 12.4588 30.3334 12.8559 30.2305C13.2531 30.1276 13.6404 30.1697 14.0179 30.3568C14.4825 30.587 14.7819 30.942 14.9161 31.4219C15.0503 31.9017 14.9931 32.3926 14.7444 32.8946C14.6354 33.1144 14.4747 33.3345 14.2623 33.5547C14.0478 33.7791 13.9323 33.9078 13.9158 33.941C13.8788 34.0157 13.8625 34.0748 13.8668 34.1182C13.8711 34.1617 13.8899 34.2072 13.9232 34.2547L13.8492 34.404L12.0916 33.5873L12.1871 33.3944C12.6306 33.5109 12.9993 33.554 13.2932 33.524C13.8355 33.4724 14.2269 33.2039 14.4674 32.7185C14.6112 32.4282 14.6351 32.1558 14.539 31.9015C14.4428 31.6472 14.2744 31.4604 14.0338 31.3412C13.6522 31.1521 13.1702 31.2698 12.5879 31.6942L11.7391 32.2967C10.8201 32.9418 10.0412 33.1061 9.40233 32.7895C8.91284 32.547 8.604 32.164 8.47582 31.6407C8.34559 31.1215 8.42744 30.5653 8.72138 29.9721C8.84471 29.7232 9.02597 29.4617 9.26515 29.1875C9.50433 28.9133 9.63831 28.7472 9.66709 28.6892C9.69176 28.6394 9.69467 28.5866 9.67584 28.5307C9.66115 28.477 9.63406 28.4274 9.59456 28.382L9.67472 28.2202L11.6845 29.2161Z" fill="#333333"/>
<path d="M11.8911 39.6816L7.58979 38.5631C7.28511 38.4839 7.02985 38.4629 6.82401 38.5003C6.44038 38.5775 6.19089 38.8379 6.07555 39.2815C5.99632 39.5862 6.01966 39.9104 6.14555 40.254C6.21446 40.4489 6.32535 40.6572 6.47822 40.8787L10.1612 41.8364C10.5063 41.9261 10.75 41.9177 10.8925 41.8113C11.035 41.7048 11.1698 41.4529 11.2971 41.0554L11.5189 41.1131L10.9544 43.284L6.22293 42.0536C5.91825 41.9744 5.69368 41.9734 5.54922 42.0506C5.40808 42.1335 5.29821 42.3537 5.21961 42.7112L5.03143 42.6622C5.0283 42.3983 5.02396 42.2035 5.01841 42.0777C5.01734 41.953 5.00753 41.7424 4.98899 41.4458C4.97895 41.3188 4.94903 41.0383 4.89922 40.6044C4.90505 40.582 4.91974 40.5715 4.94331 40.5728C4.9624 40.573 4.98538 40.5766 5.01227 40.5836L6.09432 40.865C5.81062 40.4659 5.61402 40.1182 5.50453 39.8219C5.33472 39.3711 5.30517 38.9329 5.41585 38.5072C5.51721 38.1174 5.75165 37.7862 6.11915 37.5134C6.48334 37.235 6.98804 37.1796 7.63324 37.3474L11.1214 38.2544C11.4798 38.3476 11.7393 38.3338 11.8999 38.2129C12.0017 38.1342 12.1102 37.9376 12.2255 37.6231L12.4137 37.672L11.8911 39.6816Z" fill="#333333"/>
<path d="M3.9317 46.355C3.9674 46.7158 4.02977 46.956 4.11882 47.0755C4.25476 47.2595 4.52411 47.3496 4.92686 47.346L8.51694 47.3133C8.85952 47.3102 9.08362 47.2618 9.18925 47.1683C9.29493 47.0794 9.34682 46.9307 9.34492 46.7224C9.34404 46.6252 9.33874 46.5512 9.32901 46.5003C9.31933 46.4541 9.30263 46.3987 9.27889 46.3341L9.52193 46.3319L9.69314 46.8304C9.75496 47.0104 9.86645 47.3056 10.0276 47.7162C10.1887 48.1268 10.2694 48.3437 10.2696 48.3668C10.2698 48.39 10.2584 48.404 10.2353 48.4088C10.2122 48.4136 10.1682 48.4164 10.1034 48.4169L9.16597 48.4255C9.58679 48.88 9.87741 49.2732 10.0378 49.6051C10.2029 49.9369 10.287 50.2788 10.2902 50.6306C10.2946 51.1074 10.136 51.4885 9.81451 51.7738C9.63995 51.9236 9.40265 52.0484 9.10262 52.1484C9.45295 52.4878 9.71259 52.7841 9.88157 53.0372C10.1726 53.4743 10.3202 53.9221 10.3244 54.3804C10.3311 55.1257 10.0324 55.6261 9.42827 55.8816C9.087 56.0283 8.54602 56.1049 7.80532 56.1117L4.92353 56.1379C4.59485 56.1409 4.37097 56.2147 4.25192 56.3593C4.13753 56.5085 4.06355 56.7731 4.02997 57.153L3.84942 57.1547L3.82092 54.0229L4.01535 54.0211C4.05605 54.4235 4.13947 54.6867 4.2656 54.8105C4.39177 54.939 4.64698 55.0015 5.03122 54.998L8.02411 54.9708C8.47316 54.9667 8.80372 54.9151 9.01578 54.8159C9.39384 54.6412 9.58059 54.3038 9.57604 53.8038C9.5733 53.5029 9.47105 53.2052 9.26929 52.9108C9.152 52.7405 8.9649 52.5316 8.70801 52.2839L5.15265 52.3163C4.77767 52.3197 4.49355 52.3871 4.3003 52.5185C4.10709 52.6545 4.00548 52.9355 3.99546 53.3616L3.81492 53.3632L3.78591 50.1759L3.96646 50.1742C4.02601 50.6135 4.13504 50.8926 4.29353 51.0116C4.45203 51.1305 4.83913 51.1871 5.45483 51.1815L7.39917 51.1639C8.1121 51.1574 8.60239 51.1066 8.87005 51.0116C9.32234 50.8547 9.54623 50.5286 9.54172 50.0332C9.53915 49.7508 9.45793 49.4738 9.29804 49.2021C9.14279 48.9303 8.93922 48.6914 8.68734 48.4854L4.88893 48.52C4.5371 48.5232 4.2946 48.5855 4.16145 48.7071C4.02833 48.8333 3.96134 49.1025 3.96046 49.5145L3.77991 49.5162L3.75116 46.3566L3.9317 46.355Z" fill="#333333"/>
<path d="M13.7423 67.6153C13.8782 67.9247 13.9352 68.2385 13.9132 68.5566C13.8986 68.7653 13.8474 68.9825 13.7595 69.2082L15.7813 68.3199C16.0398 68.2063 16.2048 68.0984 16.2762 67.9962C16.3495 67.8983 16.3386 67.7413 16.2437 67.5251C16.2213 67.4742 16.1996 67.4307 16.1786 67.3944C16.1576 67.3581 16.1119 67.277 16.0415 67.1512L16.2513 67.0591L16.6139 67.5217C16.7485 67.6901 16.8853 67.8576 17.0242 68.0241C17.1631 68.1906 17.2896 68.3347 17.4038 68.4565C17.4548 68.515 17.5444 68.6096 17.6727 68.7404L17.6767 68.7841L17.0036 69.0647C16.7601 69.1666 16.5082 69.2723 16.2478 69.3816C15.9916 69.4891 15.7385 69.5978 15.4884 69.7077L10.2886 71.9772C10.0131 72.0983 9.8351 72.2169 9.7547 72.3331C9.67429 72.4494 9.69834 72.6537 9.82684 72.9462C9.84732 72.9928 9.86781 73.0394 9.88829 73.086C9.91302 73.1308 9.93986 73.1746 9.96882 73.2175L9.75902 73.3097C9.73937 73.288 9.49839 73.0273 9.03608 72.5275L8.22241 71.6942L8.26007 71.6245L9.04207 71.2809C8.67924 71.1572 8.40454 71.0326 8.21799 70.9073C7.89131 70.6817 7.63858 70.3654 7.4598 69.9585C7.14321 69.238 7.16383 68.5311 7.52167 67.8378C7.88561 67.147 8.43421 66.6405 9.16747 66.3183C10.0872 65.9142 10.9929 65.8348 11.8845 66.0802C12.7822 66.328 13.4015 66.8397 13.7423 67.6153ZM8.40343 70.2417C8.54869 70.5723 8.7635 70.7965 9.04786 70.9143C9.33222 71.0321 9.56129 71.0528 9.73507 70.9764L12.4625 69.7781C13.0135 69.536 13.3362 69.2172 13.4305 68.8218C13.5308 68.4288 13.5196 68.0924 13.3967 67.8127C13.162 67.2786 12.7422 66.9676 12.1371 66.8794C11.5363 66.7895 10.8904 66.8962 10.1995 67.1998C9.51713 67.4996 8.97781 67.9237 8.58157 68.472C8.18719 69.0245 8.12781 69.6144 8.40343 70.2417Z" fill="#333333"/>
<path d="M13.6953 74.9164C14.4383 74.3718 15.2381 74.1472 16.0945 74.2428C16.9573 74.3393 17.6611 74.7591 18.2057 75.5022C18.7476 76.2415 18.9537 77.0318 18.8241 77.873C18.6944 78.7142 18.2264 79.4304 17.4198 80.0215C16.6767 80.5661 15.8583 80.8044 14.9646 80.7362C14.0709 80.668 13.3503 80.2605 12.803 79.5137C12.2775 78.7968 12.096 77.9971 12.2585 77.1146C12.421 76.232 12.8999 75.4993 13.6953 74.9164ZM17.7547 75.5917C17.5385 75.2967 17.2539 75.112 16.901 75.0378C16.2876 74.9134 15.5645 75.1564 14.7318 75.7667C14.0671 76.2539 13.5568 76.8575 13.2007 77.5777C12.8473 78.3016 12.8663 78.9306 13.2577 79.4646C13.5642 79.8828 13.9919 80.0629 14.5407 80.0051C15.0922 79.951 15.6798 79.6954 16.3034 79.2383C16.9494 78.7649 17.4526 78.175 17.8132 77.4688C18.1738 76.7625 18.1543 76.1368 17.7547 75.5917Z" fill="#333333"/>
<path d="M17.6811 84.6493C18.024 84.9129 18.2955 85.0496 18.4956 85.0593C18.6989 85.0656 18.9318 84.9284 19.1943 84.6478L23.8285 79.6924C24.0372 79.4693 24.1625 79.298 24.2043 79.1787C24.2695 78.9735 24.199 78.7744 23.9927 78.5815C23.9454 78.5372 23.8882 78.4933 23.8213 78.4497C23.7577 78.4092 23.6741 78.3596 23.5706 78.3008L23.7272 78.1334C24.2975 78.4386 24.9987 78.7902 25.8309 79.1881C25.8546 79.2103 25.8586 79.233 25.843 79.2565C25.8308 79.2831 25.7931 79.3302 25.7298 79.3979L20.0426 85.4791C19.7675 85.7733 19.6395 86.0118 19.6587 86.1946C19.6811 86.374 19.8402 86.6241 20.1359 86.9451L20.0031 87.0871L17.5482 84.7913L17.6811 84.6493Z" fill="#333333"/>
<path d="M24.8683 86.9865C25.362 86.2087 26.0251 85.7083 26.8575 85.4854C27.6962 85.2611 28.5045 85.3958 29.2824 85.8895C30.0563 86.3807 30.5361 87.0417 30.7217 87.8723C30.9073 88.703 30.7322 89.5404 30.1963 90.3847C29.7026 91.1625 29.0271 91.6824 28.17 91.9444C27.3128 92.2064 26.4933 92.0893 25.7116 91.5931C24.9611 91.1168 24.5008 90.4381 24.3308 89.557C24.1607 88.6759 24.3399 87.8191 24.8683 86.9865ZM28.8949 86.1371C28.5861 85.9411 28.2539 85.8728 27.8982 85.9321C27.2815 86.0397 26.6966 86.5294 26.1434 87.401C25.7018 88.0968 25.4463 88.8448 25.3769 89.6453C25.3115 90.4481 25.5582 91.027 26.1172 91.3817C26.5549 91.6596 27.0188 91.6717 27.5089 91.4179C28.0029 91.1667 28.457 90.7147 28.8713 90.0619C29.3005 89.3857 29.5544 88.6531 29.633 87.864C29.7116 87.0749 29.4656 86.4993 28.8949 86.1371Z" fill="#333333"/>
<path d="M31.9264 94.498C32.3365 94.6186 32.6265 94.6525 32.7963 94.5996C32.9678 94.5424 33.121 94.3413 33.2559 93.9964L34.3965 91.0795C34.5634 90.6527 34.6413 90.3327 34.6302 90.1196C34.6251 89.9038 34.5169 89.7547 34.3056 89.672C34.2625 89.6552 34.2018 89.6389 34.1234 89.6232C34.051 89.6048 33.9727 89.5891 33.8883 89.576L33.9718 89.3625C34.2513 89.3724 34.5381 89.3827 34.8322 89.3933C35.1263 89.4039 35.3305 89.4092 35.4448 89.4092C35.6925 89.4115 35.9508 89.4057 36.2197 89.3915C36.2499 89.4033 36.263 89.4209 36.2588 89.4441C36.259 89.469 36.2456 89.516 36.2187 89.585L35.8039 90.6457C36.2299 90.3698 36.6123 90.1738 36.9509 90.0577C37.2939 89.9433 37.6034 89.9401 37.8794 90.048C38.0993 90.1339 38.2521 90.2707 38.3378 90.4584C38.4252 90.6417 38.4301 90.8325 38.3525 91.0308C38.2834 91.2076 38.1713 91.3353 38.0163 91.4138C37.8656 91.4941 37.7105 91.503 37.551 91.4407C37.3872 91.3766 37.2507 91.2362 37.1415 91.0196C37.0367 90.8046 36.9368 90.6786 36.842 90.6415C36.6911 90.5825 36.4576 90.6328 36.1416 90.7926C35.8273 90.9481 35.6196 91.1552 35.5184 91.4139L34.3779 94.3307C34.2329 94.7015 34.2179 94.9939 34.3331 95.208C34.4499 95.4177 34.7105 95.5966 35.1149 95.7448L35.0314 95.9582L31.8429 94.7114L31.9264 94.498Z" fill="#333333"/>
<path d="M46.7346 96.4512L46.9635 96.463C47.0427 96.9955 47.1652 97.4074 47.331 97.6988C47.628 98.2332 48.0886 98.5165 48.7128 98.5487C49.0595 98.5665 49.3372 98.4858 49.5457 98.3064C49.7592 98.1227 49.8737 97.8783 49.8894 97.5731C49.8994 97.3789 49.8513 97.1887 49.745 97.0025C49.6387 96.8162 49.4443 96.63 49.1618 96.444L48.4079 95.9602C47.8549 95.6257 47.4523 95.2968 47.2001 94.9732C46.9479 94.6496 46.8326 94.2775 46.8542 93.8567C46.8809 93.3389 47.0877 92.9231 47.4747 92.6092C47.8617 92.2953 48.3349 92.1528 48.8944 92.1816C49.1394 92.1942 49.4052 92.2542 49.6917 92.3617C49.9829 92.4694 50.1469 92.5242 50.1839 92.5261C50.2671 92.5304 50.3278 92.5219 50.366 92.5007C50.4042 92.4795 50.4385 92.4442 50.4688 92.3947L50.6353 92.4033L50.5842 94.3407L50.3693 94.3297C50.2999 93.8764 50.193 93.5209 50.0486 93.2632C49.7858 92.7861 49.3839 92.5336 48.8429 92.5058C48.5193 92.4891 48.2599 92.5754 48.0647 92.7647C47.8696 92.954 47.7651 93.1827 47.7513 93.4509C47.7294 93.8763 48.0289 94.2718 48.6498 94.6375L49.5399 95.177C50.4971 95.764 50.9574 96.4135 50.9207 97.1255C50.8927 97.6711 50.664 98.1067 50.2346 98.4323C49.8099 98.7581 49.267 98.904 48.6058 98.87C48.3284 98.8557 48.0164 98.7933 47.6698 98.6827C47.3232 98.5722 47.1175 98.5152 47.0528 98.5119C46.9973 98.5091 46.9477 98.5274 46.9039 98.5668C46.8604 98.6017 46.8257 98.6462 46.7997 98.7005L46.6194 98.6913L46.7346 96.4512Z" fill="#333333"/>
<path d="M55.0786 89.6715C55.0544 89.4739 55.1024 89.2954 55.2228 89.1361C55.3432 88.9767 55.5045 88.8846 55.7066 88.8598C55.9042 88.8356 56.0807 88.8862 56.236 89.0117C56.3954 89.1321 56.4875 89.2934 56.5123 89.4956C56.5365 89.6932 56.4862 89.8719 56.3612 90.0318C56.2403 90.1866 56.081 90.2761 55.8834 90.3004C55.6812 90.3252 55.5028 90.2771 55.348 90.1562C55.1927 90.0306 55.1029 89.8691 55.0786 89.6715ZM55.2647 98.4852C55.7507 98.3789 56.0507 98.2581 56.1647 98.1229C56.2782 97.983 56.3019 97.6443 56.2359 97.1066L55.8325 93.8188C55.7958 93.5202 55.7498 93.3159 55.6943 93.2061C55.6023 93.0262 55.4459 92.9497 55.2254 92.9768C55.1748 92.983 55.1249 92.9938 55.0754 93.0092C55.0306 93.024 54.8973 93.0777 54.6754 93.1702L54.6492 92.9566L54.9337 92.8237C55.7057 92.4631 56.2421 92.1967 56.5428 92.0245C56.6647 91.9536 56.744 91.9159 56.7808 91.9114C56.7939 91.9424 56.8027 91.9763 56.8072 92.0131L57.4146 96.962C57.4789 97.4858 57.5812 97.8068 57.7216 97.9248C57.8666 98.0423 58.1643 98.092 58.6145 98.0741L58.6382 98.2671L55.2884 98.6782L55.2647 98.4852Z" fill="#333333"/>
<path d="M63.982 90.4297L64.1184 90.9108L62.7555 91.2973L63.8335 95.1493C63.9295 95.4877 64.0311 95.7356 64.1382 95.8929C64.3323 96.1699 64.5852 96.2642 64.897 96.1758C65.0573 96.1303 65.1846 96.0533 65.279 95.9447C65.3778 95.8349 65.4795 95.6761 65.5842 95.4684L65.7996 95.5661L65.7094 95.8082C65.5663 96.1857 65.3838 96.4756 65.1621 96.6781C64.9404 96.8805 64.7093 97.0158 64.4688 97.084C63.9432 97.2331 63.5206 97.1003 63.2009 96.6857C63.0265 96.4609 62.8755 96.1235 62.7479 95.6737L61.5997 91.6251L60.8715 91.8316C60.8454 91.8246 60.8238 91.8162 60.8067 91.8067C60.794 91.7958 60.7844 91.7793 60.7781 91.757C60.7655 91.7125 60.7649 91.6765 60.7764 91.6492C60.7911 91.6162 60.8393 91.54 60.9209 91.4206C61.1562 91.0795 61.3186 90.8121 61.408 90.6184C61.5006 90.4189 61.7026 89.9092 62.0138 89.0895C62.0717 89.0731 62.1064 89.0681 62.1178 89.0744C62.1337 89.0796 62.1499 89.1111 62.1663 89.169L62.6324 90.8125L63.982 90.4297Z" fill="#333333"/>
<path d="M76.5207 86.9399C76.1796 87.3849 75.9255 87.7932 75.7583 88.1646C75.4391 88.8803 75.4267 89.4544 75.721 89.8869C75.9581 90.2351 76.2475 90.4134 76.5891 90.4216C76.8113 90.4272 77.0143 90.3674 77.198 90.2424C77.4505 90.0705 77.6434 89.8355 77.7767 89.5376C77.9137 89.2371 77.908 88.9778 77.7595 88.7596L76.5207 86.9399ZM74.9689 90.9786C74.5911 90.4237 74.5534 89.7717 74.8556 89.0227C75.0513 88.5534 75.5413 87.7635 76.3253 86.6529L75.9932 86.1649C75.7274 85.7746 75.5042 85.5289 75.3235 85.4279C75.0188 85.2601 74.6617 85.3156 74.2522 85.5943C74.0571 85.7272 73.9053 85.9033 73.797 86.1226C73.6913 86.3458 73.6997 86.5473 73.8221 86.7272C73.8534 86.7731 73.9164 86.8451 74.011 86.943C74.1031 87.0371 74.1596 87.0995 74.1804 87.1301C74.3263 87.3444 74.3571 87.5419 74.2728 87.7225C74.2263 87.8269 74.1476 87.9169 74.0366 87.9925C73.8644 88.1097 73.6946 88.1441 73.5272 88.0957C73.3572 88.0434 73.2253 87.9484 73.1315 87.8106C72.9491 87.5427 72.9235 87.1513 73.0547 86.6364C73.187 86.1151 73.5727 85.6369 74.2118 85.2018C74.9543 84.6964 75.6216 84.5949 76.214 84.8973C76.5353 85.065 76.8679 85.4014 77.2118 85.9066L78.7789 88.2085C78.93 88.4305 79.0495 88.5732 79.1374 88.6365C79.2888 88.7519 79.4429 88.7562 79.5998 88.6494C79.6878 88.5894 79.7514 88.5265 79.7906 88.4607C79.8298 88.3948 79.885 88.262 79.9562 88.0623L80.1594 88.3608C80.1386 88.5934 80.0899 88.8058 80.0134 88.9978C79.8981 89.2891 79.7295 89.5104 79.5075 89.6615C79.2473 89.8386 79.0005 89.8834 78.7673 89.7958C78.5378 89.7055 78.3379 89.5476 78.1675 89.322C78.0486 89.7725 77.9275 90.1294 77.8042 90.3925C77.5966 90.8363 77.3359 91.165 77.0221 91.3786C76.693 91.6026 76.3297 91.6819 75.9323 91.6164C75.5323 91.5471 75.2112 91.3345 74.9689 90.9786Z" fill="#333333"/>
<path d="M83.4314 86.4513C83.644 86.1576 83.7566 85.9365 83.7693 85.7879C83.7895 85.5601 83.6477 85.314 83.3439 85.0496L80.6354 82.693C80.3769 82.4681 80.1771 82.3556 80.036 82.3556C79.898 82.3521 79.7606 82.4289 79.6238 82.586C79.56 82.6594 79.5149 82.7183 79.4884 82.7628C79.465 82.8038 79.4408 82.8563 79.4157 82.9204L79.2323 82.7609L79.4348 82.2743C79.5079 82.0986 79.6203 81.8036 79.772 81.3895C79.9237 80.9753 80.0072 80.7595 80.0224 80.742C80.0376 80.7246 80.0554 80.7217 80.0759 80.7334C80.0964 80.7451 80.1311 80.7722 80.18 80.8148L80.8873 81.4301C80.8738 80.8109 80.9171 80.3238 81.0171 79.9691C81.1137 79.6112 81.2774 79.2996 81.5084 79.0342C81.8214 78.6744 82.1928 78.4944 82.6227 78.4941C82.8526 78.4978 83.113 78.5617 83.4039 78.6859C83.3668 78.1995 83.369 77.8056 83.4104 77.5041C83.4825 76.9839 83.669 76.5509 83.9699 76.2052C84.4591 75.6429 85.0146 75.4664 85.6362 75.6759C85.9889 75.7925 86.4446 76.0939 87.0034 76.5802L89.1776 78.4719C89.4255 78.6876 89.642 78.7809 89.827 78.7516C90.0116 78.7158 90.2424 78.5669 90.5196 78.3048L90.6558 78.4233L88.6 80.7861L88.4533 80.6584C88.6897 80.3303 88.8018 80.078 88.7896 79.9016C88.7804 79.7218 88.6308 79.5058 88.3409 79.2535L86.083 77.2889C85.7442 76.9942 85.4626 76.8135 85.2381 76.7471C84.8392 76.6271 84.4757 76.7558 84.1475 77.133C83.95 77.36 83.8291 77.6506 83.7848 78.0048C83.7597 78.21 83.7611 78.4905 83.7891 78.8462L86.4714 81.18C86.7543 81.4262 87.0117 81.5642 87.2434 81.594C87.4782 81.6204 87.7407 81.4774 88.0307 81.1652L88.1669 81.2837L86.0747 83.6884L85.9385 83.5699C86.1853 83.2016 86.2888 82.9204 86.249 82.7263C86.2093 82.5322 85.9572 82.233 85.4927 81.8289L84.0258 80.5525C83.4879 80.0845 83.0873 79.7974 82.824 79.691C82.3814 79.5084 81.9975 79.604 81.6724 79.9777C81.487 80.1907 81.3641 80.4519 81.3035 80.7613C81.2395 81.0677 81.2334 81.3815 81.2852 81.7027L84.1509 84.1961C84.4163 84.4271 84.6392 84.5412 84.8195 84.5385C85.0028 84.5324 85.2315 84.3754 85.5054 84.0676L85.6416 84.1861L83.5676 86.5698L83.4314 86.4513Z" fill="#333333"/>
<path d="M88.02 69.4793C88.3092 68.894 88.7659 68.482 89.39 68.243C90.0101 68.002 90.6915 68.0651 91.4344 68.4322L89.4809 72.3855C90.4643 72.8198 91.2734 72.9486 91.9082 72.7717C92.543 72.5948 92.9937 72.2366 93.2603 71.697C93.4757 71.2612 93.543 70.8375 93.4624 70.4259C93.3818 70.0142 93.1945 69.5782 92.9004 69.1179L93.0828 68.9369C93.5258 69.3676 93.8556 69.9282 94.072 70.6187C94.2906 71.305 94.2327 71.9865 93.8984 72.663C93.5128 73.4433 92.9197 73.9016 92.1191 74.0378C91.3205 74.1699 90.5373 74.0462 89.7695 73.6668C88.9352 73.2545 88.3371 72.6517 87.9753 71.8584C87.6134 71.065 87.6283 70.272 88.02 69.4793ZM88.2961 70.0649C88.0622 70.5381 88.0934 71.0027 88.3895 71.4589C88.548 71.7025 88.7831 71.9374 89.0947 72.1637L90.393 69.5365C89.9554 69.377 89.6072 69.3031 89.3485 69.3147C88.8827 69.3375 88.5319 69.5876 88.2961 70.0649Z" fill="#333333"/>
<path d="M91.2087 61.1557L91.6894 61.2934L91.2992 62.6553L95.1406 63.7703C95.4789 63.8672 95.7431 63.9116 95.9332 63.9035C96.2709 63.8846 96.4844 63.7194 96.5736 63.4079C96.6195 63.2477 96.6212 63.0989 96.5787 62.9615C96.5375 62.8196 96.4562 62.6495 96.3349 62.451L96.5315 62.3195L96.6897 62.5237C96.9349 62.8444 97.0851 63.1523 97.1402 63.4474C97.1953 63.7425 97.1885 64.0102 97.1196 64.2506C96.9691 64.7757 96.6335 65.0648 96.1126 65.1179C95.8296 65.1476 95.4634 65.098 95.0139 64.9692L90.9683 63.8102L90.7599 64.5379C90.7401 64.5563 90.7217 64.5703 90.7045 64.5798C90.6886 64.5849 90.6695 64.5842 90.6473 64.5778C90.6028 64.5651 90.5719 64.5466 90.5548 64.5225C90.5345 64.4925 90.4951 64.4114 90.4367 64.2791C90.271 63.8994 90.1294 63.6204 90.0119 63.4423C89.8912 63.2584 89.5646 62.8181 89.0322 62.1214C89.0488 62.0635 89.0628 62.0314 89.0743 62.0251C89.087 62.0143 89.1223 62.0172 89.1801 62.0337L90.8224 62.5042L91.2087 61.1557Z" fill="#333333"/>
<path d="M98.4459 55.8249C98.9094 55.8861 99.3188 56.1106 99.6739 56.4983C100.029 56.8861 100.268 57.2842 100.392 57.6928L100.099 57.7872C99.9094 57.3139 99.6809 56.9755 99.4136 56.7722C99.1468 56.5642 98.9171 56.4475 98.7243 56.422C98.66 56.4135 98.616 56.4287 98.5922 56.4676C98.5684 56.5065 98.5535 56.5489 98.5474 56.5948L98.5347 57.0624C98.5093 57.2552 98.424 57.4237 98.2789 57.568C98.1292 57.7117 97.935 57.7678 97.6963 57.7363C97.5127 57.7121 97.3425 57.6219 97.1856 57.4658C97.0288 57.3097 96.9704 57.0801 97.0103 56.7772C97.0485 56.4881 97.1975 56.2439 97.4572 56.0447C97.7124 55.8449 98.042 55.7716 98.4459 55.8249Z" fill="#333333"/>
<path d="M91.4878 43.5753C91.3821 43.0064 91.4391 42.4896 91.6588 42.025C91.8732 41.5566 92.1556 41.2899 92.5061 41.2248C92.6563 41.1969 92.8071 41.223 92.9585 41.3032C93.1054 41.3842 93.1992 41.5339 93.2398 41.7524C93.2694 41.9117 93.241 42.063 93.1546 42.2062C93.0673 42.3448 92.9241 42.4609 92.7248 42.5544L92.4124 42.6972C92.1821 42.8012 92.0304 42.9353 91.9574 43.0996C91.8897 43.2676 91.8787 43.4744 91.9244 43.7202C92.0208 44.2391 92.33 44.6361 92.8519 44.9111C93.3685 45.1824 94.0023 45.2483 94.7533 45.1087C95.4406 44.981 96.021 44.6707 96.4945 44.1778C96.9671 43.6803 97.1413 43.097 97.017 42.4279C96.929 41.9546 96.696 41.5623 96.318 41.2511C96.1016 41.0747 95.7754 40.8905 95.3395 40.6983L95.42 40.4856C96.0144 40.6436 96.4976 40.8363 96.8695 41.0639C97.5817 41.5013 98.0051 42.0819 98.1396 42.8056C98.2715 43.5157 98.1083 44.1958 97.6499 44.846C97.1915 45.4963 96.4821 45.9106 95.5217 46.089C94.5795 46.2641 93.7139 46.1165 92.9249 45.6462C92.136 45.176 91.6569 44.4857 91.4878 43.5753Z" fill="#333333"/>
<path d="M93.3627 37.2061C92.5126 37.5613 91.6826 37.5921 90.8724 37.2984C90.0563 37.0022 89.4706 36.429 89.1154 35.579C88.762 34.7332 88.747 33.9166 89.0702 33.1293C89.3935 32.3419 90.0165 31.7555 90.9392 31.3699C91.7893 31.0148 92.6407 30.9751 93.4935 31.2509C94.3464 31.5268 94.9513 32.0919 95.3082 32.9462C95.6509 33.7664 95.6398 34.5864 95.2749 35.4062C94.91 36.226 94.2726 36.826 93.3627 37.2061ZM89.5748 35.5977C89.7158 35.9352 89.9492 36.1814 90.2748 36.3363C90.842 36.6011 91.6019 36.5345 92.5545 36.1364C93.3148 35.8187 93.9526 35.3516 94.4676 34.735C94.9809 34.1141 95.1099 33.4982 94.8547 32.8874C94.6547 32.409 94.2813 32.1335 93.7342 32.0611C93.1853 31.9843 92.5542 32.095 91.8408 32.3931C91.1018 32.7018 90.4743 33.1572 89.9581 33.7592C89.442 34.3612 89.3142 34.9741 89.5748 35.5977Z" fill="#333333"/>
<path d="M91.8359 26.7605C91.6124 26.5159 91.4141 26.3753 91.241 26.3388C91.0615 26.3011 90.7977 26.405 90.4496 26.6505L87.5725 28.6799C87.3304 28.8506 87.1762 28.9934 87.1098 29.1082C87.0168 29.2815 87.0489 29.4797 87.2064 29.7029C87.2304 29.737 87.2576 29.7716 87.2881 29.8067C87.3159 29.8381 87.3523 29.8776 87.3972 29.9252L87.1986 30.0653C87.0438 29.9422 86.6677 29.658 86.0702 29.2126L85.5181 28.8032C85.4994 28.7768 85.4982 28.755 85.5144 28.7378C85.528 28.7169 85.5518 28.6945 85.5859 28.6704L86.4201 28.0821C85.8492 27.9635 85.4339 27.8485 85.1741 27.7372C84.7805 27.5729 84.4717 27.3318 84.2476 27.014C84.0661 26.7568 83.9745 26.4702 83.9726 26.1542C83.9719 25.5428 84.3404 24.977 85.0782 24.4567L87.7283 22.5874C88.0007 22.3953 88.1587 22.2017 88.2024 22.0066C88.2461 21.8115 88.1791 21.584 88.0014 21.3241L88.1603 21.212L89.8694 23.6351L89.7105 23.7472C89.4779 23.4977 89.2661 23.3581 89.0753 23.3285C88.8806 23.3015 88.5903 23.4241 88.2044 23.6962L85.7813 25.4054C85.4559 25.6348 85.23 25.8848 85.1036 26.1553C84.9733 26.4285 85.0229 26.7277 85.2524 27.0531C85.4098 27.2763 85.6456 27.4499 85.9597 27.574C86.1374 27.6412 86.3986 27.7063 86.7432 27.7691L89.9211 25.5277C90.1935 25.3356 90.3343 25.1456 90.3435 24.9578C90.3489 24.7727 90.2633 24.547 90.0868 24.2806L90.2456 24.1686L91.9948 26.6484L91.8359 26.7605Z" fill="#333333"/>
<path d="M83.8217 19.7235L83.6541 19.5672C83.9364 19.1087 84.1078 18.7146 84.1685 18.3849C84.2853 17.7848 84.1152 17.2715 83.6583 16.8451C83.4045 16.6082 83.14 16.4912 82.865 16.4941C82.5834 16.4973 82.3383 16.6106 82.1299 16.834C81.9972 16.9762 81.9116 17.1527 81.873 17.3637C81.8345 17.5747 81.8634 17.8423 81.9598 18.1665L82.2252 19.0221C82.433 19.634 82.5293 20.1449 82.514 20.5549C82.4987 20.9648 82.3473 21.3238 82.0599 21.6318C81.7061 22.0109 81.2801 22.196 80.7819 22.187C80.2838 22.178 79.8299 21.9824 79.4203 21.6002C79.2409 21.4328 79.0762 21.2158 78.9261 20.9491C78.7727 20.6793 78.6824 20.5317 78.6553 20.5064C78.5944 20.4496 78.5425 20.417 78.4997 20.4086C78.4568 20.4003 78.4078 20.4053 78.3528 20.4236L78.2309 20.3098L79.5172 18.8602L79.6746 19.007C79.4359 19.3985 79.2889 19.7394 79.2334 20.0295C79.1274 20.5638 79.2724 21.0158 79.6684 21.3853C79.9053 21.6064 80.1594 21.7074 80.4306 21.6882C80.7018 21.669 80.929 21.5612 81.1122 21.3649C81.4028 21.0535 81.4282 20.558 81.1886 19.8784L80.8548 18.8926C80.5002 17.8271 80.5662 17.0338 81.0526 16.5126C81.4253 16.1132 81.8807 15.9271 82.4188 15.9544C82.9536 15.9785 83.463 16.2163 83.947 16.668C84.1501 16.8575 84.3486 17.1062 84.5427 17.4139C84.7368 17.7217 84.8575 17.8976 84.9049 17.9419C84.9455 17.9798 84.9953 17.9977 85.0542 17.9957C85.1099 17.997 85.1652 17.9853 85.22 17.9604L85.352 18.0836L83.8217 19.7235Z" fill="#333333"/>
<path d="M27.6017 10.3635C27.2639 10.6256 27.0668 10.8409 27.0103 11.0096C26.9564 11.1822 27.0298 11.424 27.2306 11.7352L28.9287 14.3668C29.1772 14.7519 29.3912 15.0023 29.5705 15.118C29.7485 15.2401 29.9327 15.2396 30.1234 15.1166C30.1623 15.0915 30.211 15.0518 30.2696 14.9975C30.3268 14.9495 30.3854 14.8952 30.4454 14.8344L30.5697 15.027C30.3981 15.2479 30.222 15.4744 30.0413 15.7067C29.8607 15.939 29.7369 16.1016 29.67 16.1943C29.5232 16.3937 29.3768 16.6066 29.2309 16.833C29.2037 16.8506 29.1818 16.8509 29.1654 16.834C29.1451 16.8196 29.1148 16.7812 29.0747 16.719L28.4572 15.7621C28.4316 16.2689 28.3668 16.6936 28.2628 17.0362C28.1549 17.3813 27.9765 17.6342 27.7276 17.7949C27.5292 17.9229 27.3288 17.9668 27.1265 17.9265C26.9267 17.8901 26.7691 17.7825 26.6536 17.6035C26.5507 17.4441 26.5128 17.2785 26.5397 17.1068C26.5628 16.9376 26.6463 16.8066 26.7902 16.7137C26.938 16.6184 27.1317 16.5898 27.3713 16.628C27.607 16.6688 27.7676 16.6616 27.8532 16.6063C27.9893 16.5185 28.0851 16.2997 28.1404 15.9499C28.1982 15.6041 28.1518 15.3145 28.0012 15.0811L26.303 12.4495C26.0872 12.1149 25.8588 11.9318 25.6178 11.8999C25.3794 11.8719 25.0818 11.9786 24.725 12.2198L24.6008 12.0272L27.4774 10.171L27.6017 10.3635Z" fill="#333333"/>
<path d="M52.3038 38.6742C45.7854 38.6742 40.4521 44.0075 40.4521 50.5259C40.4521 57.0443 45.7854 62.3776 52.3038 62.3776C58.8223 62.3776 64.1555 57.0443 64.1555 50.5259C64.1555 44.0075 58.8223 38.6742 52.3038 38.6742ZM57.2816 55.5036L51.1187 51.7111V44.6001H52.8964V50.7629L58.2297 53.9629L57.2816 55.5036Z" fill="black"/>
</svg>
